<mxfile host="Electron" modified="2024-07-10T08:22:46.535Z" agent="Mozilla/5.0 (Windows NT 10.0; Win64; x64) AppleWebKit/537.36 (KHTML, like Gecko) draw.io/24.6.4 Chrome/124.0.6367.207 Electron/30.0.6 Safari/537.36" etag="ZfRtO-Mn9yTJOf7CFFRm" version="24.6.4" type="device">
  <diagram name="Page-1" id="bI_Bvpq-ou_PiwchBcwX">
    <mxGraphModel dx="388" dy="456" grid="1" gridSize="10" guides="1" tooltips="1" connect="1" arrows="1" fold="1" page="1" pageScale="1" pageWidth="850" pageHeight="1100" background="none" math="0" shadow="0">
      <root>
        <mxCell id="0" />
        <mxCell id="1" parent="0" />
        <mxCell id="D2_TBsNIzhwNBLKSX-1T-1" value="&lt;font style=&quot;font-size: 20px;&quot;&gt;Calendar Class Diagram&lt;/font&gt;" style="text;align=center;fontStyle=1;verticalAlign=middle;spacingLeft=3;spacingRight=3;strokeColor=none;rotatable=0;points=[[0,0.5],[1,0.5]];portConstraint=eastwest;html=1;labelBackgroundColor=none;fontColor=#FFFFFF;" vertex="1" parent="1">
          <mxGeometry x="265" y="100" width="320" height="50" as="geometry" />
        </mxCell>
        <mxCell id="D2_TBsNIzhwNBLKSX-1T-2" value="Date" style="swimlane;fontStyle=1;align=center;verticalAlign=top;childLayout=stackLayout;horizontal=1;startSize=26;horizontalStack=0;resizeParent=1;resizeParentMax=0;resizeLast=0;collapsible=1;marginBottom=0;whiteSpace=wrap;html=1;labelBackgroundColor=none;fillColor=#182E3E;strokeColor=#FFFFFF;fontColor=#FFFFFF;" vertex="1" parent="1">
          <mxGeometry x="140" y="210" width="260" height="120" as="geometry">
            <mxRectangle x="70" y="310" width="60" height="30" as="alternateBounds" />
          </mxGeometry>
        </mxCell>
        <mxCell id="D2_TBsNIzhwNBLKSX-1T-3" value="- year : Year" style="text;strokeColor=none;fillColor=none;align=left;verticalAlign=top;spacingLeft=4;spacingRight=4;overflow=hidden;rotatable=0;points=[[0,0.5],[1,0.5]];portConstraint=eastwest;whiteSpace=wrap;html=1;labelBackgroundColor=none;fontColor=#FFFFFF;" vertex="1" parent="D2_TBsNIzhwNBLKSX-1T-2">
          <mxGeometry y="26" width="260" height="24" as="geometry" />
        </mxCell>
        <mxCell id="D2_TBsNIzhwNBLKSX-1T-4" value="" style="line;strokeWidth=1;fillColor=none;align=left;verticalAlign=middle;spacingTop=-1;spacingLeft=3;spacingRight=3;rotatable=0;labelPosition=right;points=[];portConstraint=eastwest;strokeColor=#FFFFFF;labelBackgroundColor=none;fontColor=#FFFFFF;" vertex="1" parent="D2_TBsNIzhwNBLKSX-1T-2">
          <mxGeometry y="50" width="260" height="8" as="geometry" />
        </mxCell>
        <mxCell id="D2_TBsNIzhwNBLKSX-1T-5" value="&lt;div&gt;&lt;div&gt;+ Date(year:Year)&amp;nbsp;&lt;/div&gt;&lt;/div&gt;&lt;div&gt;- calculate_elapsed_days() : int&lt;/div&gt;&lt;div&gt;- calculate_day_week() : int&lt;/div&gt;&lt;div&gt;+ displayCalendar() : void&lt;/div&gt;" style="text;strokeColor=none;fillColor=none;align=left;verticalAlign=top;spacingLeft=4;spacingRight=4;overflow=hidden;rotatable=0;points=[[0,0.5],[1,0.5]];portConstraint=eastwest;whiteSpace=wrap;html=1;labelBackgroundColor=none;fontColor=#FFFFFF;" vertex="1" parent="D2_TBsNIzhwNBLKSX-1T-2">
          <mxGeometry y="58" width="260" height="62" as="geometry" />
        </mxCell>
        <mxCell id="D2_TBsNIzhwNBLKSX-1T-7" value="Month" style="swimlane;fontStyle=1;align=center;verticalAlign=top;childLayout=stackLayout;horizontal=1;startSize=26;horizontalStack=0;resizeParent=1;resizeParentMax=0;resizeLast=0;collapsible=1;marginBottom=0;whiteSpace=wrap;html=1;labelBackgroundColor=none;fillColor=#182E3E;strokeColor=#FFFFFF;fontColor=#FFFFFF;" vertex="1" parent="1">
          <mxGeometry x="470" y="380" width="220" height="118" as="geometry" />
        </mxCell>
        <mxCell id="D2_TBsNIzhwNBLKSX-1T-8" value="- monthNumber : int" style="text;strokeColor=none;fillColor=none;align=left;verticalAlign=top;spacingLeft=4;spacingRight=4;overflow=hidden;rotatable=0;points=[[0,0.5],[1,0.5]];portConstraint=eastwest;whiteSpace=wrap;html=1;labelBackgroundColor=none;fontColor=#FFFFFF;" vertex="1" parent="D2_TBsNIzhwNBLKSX-1T-7">
          <mxGeometry y="26" width="220" height="24" as="geometry" />
        </mxCell>
        <mxCell id="D2_TBsNIzhwNBLKSX-1T-9" value="" style="line;strokeWidth=1;fillColor=none;align=left;verticalAlign=middle;spacingTop=-1;spacingLeft=3;spacingRight=3;rotatable=0;labelPosition=right;points=[];portConstraint=eastwest;strokeColor=#FFFFFF;labelBackgroundColor=none;fontColor=#FFFFFF;" vertex="1" parent="D2_TBsNIzhwNBLKSX-1T-7">
          <mxGeometry y="50" width="220" height="8" as="geometry" />
        </mxCell>
        <mxCell id="D2_TBsNIzhwNBLKSX-1T-10" value="+ Month(monthNumber:int)&lt;div&gt;+ getMonthName() : String&lt;/div&gt;&lt;div&gt;+ getNumOfDays(year:Year) : int&lt;/div&gt;" style="text;strokeColor=none;fillColor=none;align=left;verticalAlign=top;spacingLeft=4;spacingRight=4;overflow=hidden;rotatable=0;points=[[0,0.5],[1,0.5]];portConstraint=eastwest;whiteSpace=wrap;html=1;labelBackgroundColor=none;fontColor=#FFFFFF;" vertex="1" parent="D2_TBsNIzhwNBLKSX-1T-7">
          <mxGeometry y="58" width="220" height="60" as="geometry" />
        </mxCell>
        <mxCell id="D2_TBsNIzhwNBLKSX-1T-27" value="Year" style="swimlane;fontStyle=1;align=center;verticalAlign=top;childLayout=stackLayout;horizontal=1;startSize=26;horizontalStack=0;resizeParent=1;resizeParentMax=0;resizeLast=0;collapsible=1;marginBottom=0;whiteSpace=wrap;html=1;labelBackgroundColor=none;fillColor=#182E3E;strokeColor=#FFFFFF;fontColor=#FFFFFF;" vertex="1" parent="1">
          <mxGeometry x="500" y="190" width="160" height="150" as="geometry" />
        </mxCell>
        <mxCell id="D2_TBsNIzhwNBLKSX-1T-28" value="- year : int" style="text;strokeColor=none;fillColor=none;align=left;verticalAlign=top;spacingLeft=4;spacingRight=4;overflow=hidden;rotatable=0;points=[[0,0.5],[1,0.5]];portConstraint=eastwest;whiteSpace=wrap;html=1;labelBackgroundColor=none;fontColor=#FFFFFF;" vertex="1" parent="D2_TBsNIzhwNBLKSX-1T-27">
          <mxGeometry y="26" width="160" height="26" as="geometry" />
        </mxCell>
        <mxCell id="D2_TBsNIzhwNBLKSX-1T-29" value="" style="line;strokeWidth=1;fillColor=none;align=left;verticalAlign=middle;spacingTop=-1;spacingLeft=3;spacingRight=3;rotatable=0;labelPosition=right;points=[];portConstraint=eastwest;strokeColor=#FFFFFF;labelBackgroundColor=none;fontColor=#FFFFFF;" vertex="1" parent="D2_TBsNIzhwNBLKSX-1T-27">
          <mxGeometry y="52" width="160" height="8" as="geometry" />
        </mxCell>
        <mxCell id="D2_TBsNIzhwNBLKSX-1T-30" value="+ Year(year:int)&lt;div&gt;&lt;div&gt;+ isLeapYear() : booelan&lt;/div&gt;&lt;div&gt;+ getYear() : int&lt;br&gt;&lt;div&gt;+ setYear(year:int) : void&lt;/div&gt;&lt;/div&gt;&lt;/div&gt;" style="text;strokeColor=none;fillColor=none;align=left;verticalAlign=top;spacingLeft=4;spacingRight=4;overflow=hidden;rotatable=0;points=[[0,0.5],[1,0.5]];portConstraint=eastwest;whiteSpace=wrap;html=1;labelBackgroundColor=none;fontColor=#FFFFFF;" vertex="1" parent="D2_TBsNIzhwNBLKSX-1T-27">
          <mxGeometry y="60" width="160" height="90" as="geometry" />
        </mxCell>
        <mxCell id="D2_TBsNIzhwNBLKSX-1T-33" value="" style="endArrow=diamondThin;endFill=1;endSize=24;html=1;rounded=0;exitX=-0.013;exitY=0.193;exitDx=0;exitDy=0;exitPerimeter=0;entryX=1;entryY=-0.027;entryDx=0;entryDy=0;entryPerimeter=0;labelBackgroundColor=none;strokeColor=#23445D;fontColor=default;" edge="1" parent="1" source="D2_TBsNIzhwNBLKSX-1T-30" target="D2_TBsNIzhwNBLKSX-1T-5">
          <mxGeometry width="160" relative="1" as="geometry">
            <mxPoint x="300" y="370" as="sourcePoint" />
            <mxPoint x="460" y="370" as="targetPoint" />
          </mxGeometry>
        </mxCell>
        <mxCell id="D2_TBsNIzhwNBLKSX-1T-37" value="" style="endArrow=diamondThin;endFill=1;endSize=24;html=1;rounded=0;exitX=0.002;exitY=0.339;exitDx=0;exitDy=0;exitPerimeter=0;entryX=1.003;entryY=0.026;entryDx=0;entryDy=0;entryPerimeter=0;labelBackgroundColor=none;strokeColor=#23445D;fontColor=default;" edge="1" parent="1" source="D2_TBsNIzhwNBLKSX-1T-10">
          <mxGeometry width="160" relative="1" as="geometry">
            <mxPoint x="469.0000000000001" y="431.65999999999997" as="sourcePoint" />
            <mxPoint x="400" y="265.61199999999997" as="targetPoint" />
            <Array as="points">
              <mxPoint x="440" y="458" />
              <mxPoint x="440" y="349" />
              <mxPoint x="439" y="266" />
            </Array>
          </mxGeometry>
        </mxCell>
      </root>
    </mxGraphModel>
  </diagram>
</mxfile>
